# xmcd
#
# Track frame offsets:
#	150
#	16063
#	38538
#	65253
#	83566
#	95609
#	108729
#	134671
#	150745
#	163641
#
# Disc length: 2334
#
# Revision: 1
# Processed by: cddbd v1.5.1PL0 Copyright (c) Steve Scherf et al.
# Submitted via: AltoMP3_Maker 3.0
# Normalized: r0:TDELIM( - )
#
DISCID=75091c0a
DTITLE=Various Artist - South Side Chicago Blues
DYEAR=1900
DGENRE=
TTITLE0=Junior Wells - Stop Breaking Down
TTITLE1=Byther Smith - Cried Like A Baby Child
TTITLE2=J.B. Hutto - Slidewinder
TTITLE3=Sunnyland Slim - Smile on My Face
TTITLE4=Rober Jr. Lockwood - Can't Stand The Pain
TTITLE5=Little Walter - Just Keep Lovin' Her
TTITLE6=Lurrie Bell - All Over Again
TTITLE7=Big Time Sarah - Train I Ride
TTITLE8=Carey Bell - Walking In The Park
TTITLE9=Jimmy Rogers - I'm In Love
EXTD=
EXTT0=
EXTT1=
EXTT2=
EXTT3=
EXTT4=
EXTT5=
EXTT6=
EXTT7=
EXTT8=
EXTT9=
PLAYORDER=
